<svg xmlns="http://www.w3.org/2000/svg" viewBox="0 0 24 24"><defs><style>.a{fill:none;stroke:currentColor;stroke-linecap:round;stroke-linejoin:round;}</style></defs><title>board-game-dice-1</title><path class="a"  d="M10.1 23.374a1.5 1.5 0 0 1-1.2 0l-7.1-3.106a.5.5 0 0 1-.3-.458V10.3a.5.5 0 0 1 .351-.477l7.2-2.251a1.5 1.5 0 0 1 .9 0l7.2 2.253a.5.5 0 0 1 .351.477v9.508a.5.5 0 0 1-.3.458zm-.6.126V13"/><path class="a"  d="M17.423 10.029 9.5 13l-7.923-2.971M14.5 6.896V6m7.923-2.971L14.5 6 6.577 3.029" /><path class="a" d="m19.5 14.45 2.7-1.182a.5.5 0 0 0 .3-.458V3.3a.5.5 0 0 0-.351-.477L14.948.568a1.5 1.5 0 0 0-.9 0l-7.2 2.251A.5.5 0 0 0 6.5 3.3v2.97"/><path class="a"  d="M14.5 2.75a.25.25 0 0 1 .25.25m-.5 0a.25.25 0 0 1 .25-.25m0 .5a.25.25 0 0 1-.25-.25m.5 0a.25.25 0 0 1-.25.25m5.5 3a.25.25 0 0 1 .25.25m-.5 0a.25.25 0 0 1 .25-.25m0 .5a.25.25 0 0 1-.25-.25m.5 0a.25.25 0 0 1-.25.25m0 4.5a.25.25 0 0 1 .25.25m-.5 0a.25.25 0 0 1 .25-.25m0 .5a.25.25 0 0 1-.25-.25m.5 0a.25.25 0 0 1-.25.25m-5 2.5a.25.25 0 0 1 .25.25m-.5 0a.25.25 0 0 1 .25-.25m0 .5a.25.25 0 0 1-.25-.25m.5 0a.25.25 0 0 1-.25.25m-1.5 2a.25.25 0 0 1 .25.25m-.5 0a.25.25 0 0 1 .25-.25m0 .5a.25.25 0 0 1-.25-.25m.5 0a.25.25 0 0 1-.25.25m-1.5 2a.25.25 0 0 1 .25.25m-.5 0a.25.25 0 0 1 .25-.25m0 .5a.25.25 0 0 1-.25-.25m.5 0a.25.25 0 0 1-.25.25m-5-.5a.25.25 0 0 1 .25.25m-.5 0a.25.25 0 0 1 .25-.25m0 .5a.25.25 0 0 1-.25-.25m.5 0a.25.25 0 0 1-.25.25m-3-5.5a.25.25 0 0 1 .25.25m-.5 0a.25.25 0 0 1 .25-.25m0 .5a.25.25 0 0 1-.25-.25m.5 0a.25.25 0 0 1-.25.25m5.5-5a.25.25 0 0 1 .25.25m-.5 0a.25.25 0 0 1 .25-.25m0 .5a.25.25 0 0 1-.25-.25m.5 0a.25.25 0 0 1-.25.25"/></svg>