<svg id="Light" xmlns="http://www.w3.org/2000/svg" viewBox="0 0 24 24"><defs><style>.cls-1{fill:none;stroke:currentColor;stroke-linecap:round;stroke-linejoin:round;}</style></defs><title>spider-web</title><line class="cls-1" x1="12" y1="16.5" x2="12" y2="23.5"/><line class="cls-1" x1="12" y1="0.5" x2="12" y2="6.5"/><line class="cls-1" x1="15.994" y1="14.723" x2="23" y2="19.5"/><line class="cls-1" x1="1" y1="4.5" x2="7.5" y2="8.932"/><line class="cls-1" x1="8" y1="14.727" x2="1" y2="19.5"/><line class="cls-1" x1="23" y1="4.5" x2="16.5" y2="8.932"/><circle class="cls-1" cx="12" cy="13" r="2"/><ellipse class="cls-1" cx="12" cy="9.5" rx="1" ry="1.5"/><line class="cls-1" x1="13" y1="9.5" x2="14.5" y2="9"/><line class="cls-1" x1="11" y1="9.5" x2="9.5" y2="9"/><line class="cls-1" x1="13.321" y1="11.5" x2="15" y2="12"/><line class="cls-1" x1="10.675" y1="11.5" x2="9" y2="12"/><polygon class="cls-1" points="2.5 5.5 12 1.5 21.5 5.5 21.5 18.5 12 22.5 2.5 18.5 2.5 5.5"/><polygon class="cls-1" points="6 8 12 5.5 18 8 18 16 12 18.5 6 16 6 8"/></svg>