<svg id="Light" xmlns="http://www.w3.org/2000/svg" viewBox="0 0 24 24"><defs><style>.cls-1{fill:none;stroke:currentColor;stroke-linecap:round;stroke-linejoin:round;}</style></defs><title>ticket</title><path class="cls-1" d="M23.5,15.471a.493.493,0,0,0-.407-.5,3,3,0,0,1,0-5.946.492.492,0,0,0,.407-.5V5a.5.5,0,0,0-.5-.5H1A.5.5,0,0,0,.5,5V8.536a.5.5,0,0,0,.429.494,3,3,0,0,1,0,5.94.5.5,0,0,0-.429.494V19a.5.5,0,0,0,.5.5H23a.5.5,0,0,0,.5-.5Z"/><rect class="cls-1" x="6.5" y="7.5" width="9" height="9" rx="0.5" ry="0.5"/><line class="cls-1" x1="9.5" y1="10.5" x2="12.5" y2="10.5"/><line class="cls-1" x1="9.5" y1="13.5" x2="12.5" y2="13.5"/><path class="cls-1" d="M18.75,6.75A.25.25,0,0,1,19,7"/><path class="cls-1" d="M18.5,7a.25.25,0,0,1,.25-.25"/><path class="cls-1" d="M18.75,7.25A.25.25,0,0,1,18.5,7"/><path class="cls-1" d="M19,7a.25.25,0,0,1-.25.25"/><path class="cls-1" d="M18.75,9.75A.25.25,0,0,1,19,10"/><path class="cls-1" d="M18.5,10a.25.25,0,0,1,.25-.25"/><path class="cls-1" d="M18.75,10.25A.25.25,0,0,1,18.5,10"/><path class="cls-1" d="M19,10a.25.25,0,0,1-.25.25"/><path class="cls-1" d="M18.75,13.75A.25.25,0,0,1,19,14"/><path class="cls-1" d="M18.5,14a.25.25,0,0,1,.25-.25"/><path class="cls-1" d="M18.75,14.25A.25.25,0,0,1,18.5,14"/><path class="cls-1" d="M19,14a.25.25,0,0,1-.25.25"/><path class="cls-1" d="M18.75,16.75A.25.25,0,0,1,19,17"/><path class="cls-1" d="M18.5,17a.25.25,0,0,1,.25-.25"/><path class="cls-1" d="M18.75,17.25A.25.25,0,0,1,18.5,17"/><path class="cls-1" d="M19,17a.25.25,0,0,1-.25.25"/></svg>