<?xml version="1.0" encoding="utf-8" standalone="no"?>
<!DOCTYPE svg PUBLIC "-//W3C//DTD SVG 1.1//EN"
  "http://www.w3.org/Graphics/SVG/1.1/DTD/svg11.dtd">
<svg xmlns:xlink="http://www.w3.org/1999/xlink" viewBox="80 8 236 126" preserveAspectRatio="none" xmlns="http://www.w3.org/2000/svg" version="1.1">
 <metadata>
  <rdf:RDF xmlns:dc="http://purl.org/dc/elements/1.1/" xmlns:cc="http://creativecommons.org/ns#" xmlns:rdf="http://www.w3.org/1999/02/22-rdf-syntax-ns#">
   <cc:Work>
    <dc:type rdf:resource="http://purl.org/dc/dcmitype/StillImage"/>
    <dc:date>2026-06-20T04:45:06.846814</dc:date>
    <dc:format>image/svg+xml</dc:format>
    <dc:creator>
     <cc:Agent>
      <dc:title>Matplotlib v3.10.8, https://matplotlib.org/</dc:title>
     </cc:Agent>
    </dc:creator>
   </cc:Work>
  </rdf:RDF>
 </metadata>
 <defs>
  <style type="text/css">*{stroke-linejoin: round; stroke-linecap: butt}</style>
 </defs>
 <g id="figure_1">
  <g id="patch_1">
   <path d="M 0 192.96 
L 419.04 192.96 
L 419.04 0 
L 0 0 
z
" class="fill-none"/>
  </g>
  <g id="axes_1">
   <g id="patch_2">
    <path vector-effect="non-scaling-stroke" d="M 84.660285 128.576586 
Q 199.150536 128.576586 311.404718 128.576586 
" class="fill-none stroke-zinc-200 dark:stroke-zinc-700" style="stroke-width: 2; stroke-linecap: round"/>
   </g>
   <g id="patch_3">
    <path vector-effect="non-scaling-stroke" d="M 84.660285 128.576586 
Q 84.660285 74.017825 84.660285 21.695133 
" class="fill-none stroke-zinc-200 dark:stroke-zinc-700" style="stroke-width: 2; stroke-linecap: round"/>
   </g>
   <g id="line2d_1">
    <path vector-effect="non-scaling-stroke" d="M 91.265492 46.565764 
L 94.913802 49.559307 
L 98.562112 52.258341 
L 102.210422 54.691842 
L 106.314771 57.144558 
L 110.41912 59.32753 
L 114.523469 61.270423 
L 119.083857 63.179634 
L 123.644245 64.857018 
L 128.660671 66.467873 
L 134.133136 67.982342 
L 140.06164 69.378137 
L 146.446183 70.640514 
L 153.286765 71.761808 
L 161.039424 72.795324 
L 169.704161 73.710788 
L 179.280975 74.492249 
L 190.225906 75.1603 
L 203.45103 75.734168 
L 219.412387 76.193086 
L 239.934132 76.546602 
L 268.208536 76.793363 
L 296.026902 76.90278 
L 296.026902 76.90278 
" clip-path="url(#pfe2d4a24a4)" class="fill-none stroke-zinc-500 dark:stroke-zinc-400" style="stroke-width: 2; stroke-linecap: square"/>
   </g>
   <g id="line2d_2">
    <path vector-effect="non-scaling-stroke" d="M 91.265492 42.684071 
L 94.913802 45.266812 
L 99.018151 47.898325 
L 103.1225 50.27876 
L 107.682887 52.671556 
L 112.699314 55.042261 
L 118.171779 57.361888 
L 123.644245 59.438949 
L 129.572749 61.441584 
L 135.501253 63.20092 
L 141.429757 64.722236 
L 147.358261 66.007159 
L 153.286765 67.059058 
L 159.215269 67.887355 
L 165.599812 68.550397 
L 172.440394 69.036821 
L 180.649092 69.394776 
L 195.698371 69.772546 
L 209.379534 70.215413 
L 222.14862 70.864792 
L 244.038481 72.014811 
L 253.159257 72.242873 
L 262.280032 72.245926 
L 272.768924 72.016176 
L 296.026902 71.368629 
L 296.026902 71.368629 
" clip-path="url(#pfe2d4a24a4)" class="fill-none stroke-zinc-200 dark:stroke-zinc-700" style="stroke-width: 1.9; stroke-linecap: square"/>
   </g>
  </g>
 </g>
 <defs>
  <clipPath id="pfe2d4a24a4">
   <rect x="67.0464" y="13.5072" width="259.8048" height="140.8608"/>
  </clipPath>
 </defs>
</svg>
