<?xml version="1.0" encoding="utf-8" standalone="no"?>
<!DOCTYPE svg PUBLIC "-//W3C//DTD SVG 1.1//EN"
  "http://www.w3.org/Graphics/SVG/1.1/DTD/svg11.dtd">
<svg xmlns:xlink="http://www.w3.org/1999/xlink" viewBox="80 8 236 126" preserveAspectRatio="none" xmlns="http://www.w3.org/2000/svg" version="1.1">
 <metadata>
  <rdf:RDF xmlns:dc="http://purl.org/dc/elements/1.1/" xmlns:cc="http://creativecommons.org/ns#" xmlns:rdf="http://www.w3.org/1999/02/22-rdf-syntax-ns#">
   <cc:Work>
    <dc:type rdf:resource="http://purl.org/dc/dcmitype/StillImage"/>
    <dc:date>2026-06-20T04:45:07.207779</dc:date>
    <dc:format>image/svg+xml</dc:format>
    <dc:creator>
     <cc:Agent>
      <dc:title>Matplotlib v3.10.8, https://matplotlib.org/</dc:title>
     </cc:Agent>
    </dc:creator>
   </cc:Work>
  </rdf:RDF>
 </metadata>
 <defs>
  <style type="text/css">*{stroke-linejoin: round; stroke-linecap: butt}</style>
 </defs>
 <g id="figure_1">
  <g id="patch_1">
   <path d="M 0 192.96 
L 419.04 192.96 
L 419.04 0 
L 0 0 
z
" class="fill-none"/>
  </g>
  <g id="axes_1">
   <g id="patch_2">
    <path vector-effect="non-scaling-stroke" d="M 84.660285 128.576586 
Q 199.150536 128.576586 311.404718 128.576586 
" class="fill-none stroke-zinc-200 dark:stroke-zinc-700" style="stroke-width: 2.5; stroke-linecap: round"/>
   </g>
   <g id="patch_3">
    <path vector-effect="non-scaling-stroke" d="M 84.660285 128.576586 
Q 84.660285 74.017825 84.660285 21.695133 
" class="fill-none stroke-zinc-200 dark:stroke-zinc-700" style="stroke-width: 2.5; stroke-linecap: round"/>
   </g>
   <g id="line2d_1">
    <path vector-effect="non-scaling-stroke" d="M 91.265492 46.575492 
L 94.236508 51.763507 
L 97.207525 56.531921 
L 100.178542 60.914671 
L 103.149558 64.94295 
L 106.491952 69.086663 
L 109.834346 72.855299 
L 113.17674 76.282806 
L 116.519134 79.400065 
L 119.861527 82.235156 
L 123.575298 85.085308 
L 127.289069 87.650288 
L 131.00284 89.958628 
L 135.087988 92.231953 
L 139.173136 94.256366 
L 143.629661 96.212876 
L 148.457563 98.070957 
L 153.285465 99.691069 
L 158.484744 101.204546 
L 164.055401 102.596453 
L 169.997434 103.857514 
L 176.682222 105.043809 
L 183.738386 106.074307 
L 183.738386 106.753082 
L 184.238558 101.120338 
L 184.488644 99.655963 
L 184.73873 99.347072 
L 184.988815 99.97124 
L 185.488987 102.088282 
L 185.739073 102.622587 
L 185.989158 102.499468 
L 186.739416 100.491901 
L 186.989502 100.568515 
L 187.239587 101.362003 
L 187.989845 105.016357 
L 188.23993 105.077405 
L 188.490016 104.074073 
L 189.490359 96.170753 
L 189.740445 95.875933 
L 189.990531 96.770661 
L 191.24096 105.137617 
L 191.491046 105.370019 
L 191.741131 105.415274 
L 191.991217 105.706064 
L 192.241303 106.558083 
L 192.741475 109.908834 
L 193.241646 112.961282 
L 193.491732 113.211704 
L 193.741818 112.341938 
L 194.742161 105.036586 
L 194.992247 104.866463 
L 195.242332 105.790658 
L 196.242675 111.953623 
L 196.492761 112.056032 
L 197.493104 110.201027 
L 197.74319 110.725872 
L 198.243362 112.266103 
L 198.493447 112.331554 
L 198.743533 111.401398 
L 199.243705 106.576966 
L 199.743876 100.685837 
L 199.993962 98.801449 
L 200.244048 98.101581 
L 200.494134 98.53751 
L 201.244391 102.285308 
L 201.494477 102.708215 
L 201.744563 102.37366 
L 202.49482 99.848705 
L 202.744906 99.786101 
L 202.994992 100.347523 
L 203.495163 102.088531 
L 203.745249 102.327621 
L 203.995335 101.659344 
L 204.495506 97.788792 
L 204.995678 93.564331 
L 205.245764 92.736076 
L 205.495849 93.169913 
L 205.745935 94.754281 
L 206.496192 101.629216 
L 206.746278 102.970523 
L 206.996364 103.527428 
L 207.24645 103.546171 
L 207.496536 103.45013 
L 207.746621 103.665733 
L 207.996707 104.451349 
L 208.99705 109.509114 
L 209.247136 109.261217 
L 209.497222 108.050227 
L 210.247479 102.866698 
L 210.497565 102.465141 
L 210.747651 103.246535 
L 211.247822 107.401038 
L 211.747994 111.470713 
L 211.99808 112.331804 
L 212.248165 112.303333 
L 212.998423 110.343189 
L 213.248508 110.325685 
L 213.998766 111.771746 
L 214.248852 111.398484 
L 214.498937 110.054605 
L 214.999109 104.998265 
L 215.499281 100.103758 
L 215.749366 99.056836 
L 215.999452 99.226336 
L 216.499624 102.091286 
L 216.999795 104.708583 
L 217.249881 104.843784 
L 217.499967 104.148773 
L 218.250224 100.829109 
L 218.50031 100.571047 
L 218.750396 100.864558 
L 219.250567 101.693953 
L 219.500653 101.354388 
L 219.750739 100.162434 
L 220.751082 92.542846 
L 221.001168 92.457198 
L 221.251253 93.641266 
L 222.501682 103.789565 
L 222.751768 103.921471 
L 223.25194 103.221805 
L 223.502025 103.270259 
L 223.752111 103.917585 
L 224.502369 107.418616 
L 224.752454 107.743875 
L 225.00254 107.189782 
L 226.002883 102.261889 
L 226.252969 102.807889 
L 226.503055 104.50896 
L 227.503398 113.920862 
L 227.753484 114.506098 
L 228.00357 114.175952 
L 228.753827 111.835894 
L 229.003913 111.812929 
L 229.504084 112.695546 
L 229.75417 112.800067 
L 230.004256 112.158608 
L 230.254342 110.635676 
L 231.254685 102.450519 
L 231.50477 102.311195 
L 231.754856 103.303142 
L 232.505114 108.550412 
L 232.755199 109.218769 
L 233.005285 108.867868 
L 233.505457 106.043353 
L 234.005628 103.410347 
L 234.255714 102.965554 
L 234.5058 103.024374 
L 234.755886 103.225913 
L 235.005971 103.126534 
L 235.256057 102.38044 
L 235.756229 98.855871 
L 236.2564 95.146349 
L 236.506486 94.544956 
L 236.756572 95.19445 
L 237.256743 99.557964 
L 237.756915 104.484723 
L 238.007001 105.824779 
L 238.257086 106.159497 
L 238.507172 105.697735 
L 239.007344 104.205233 
L 239.25743 104.056354 
L 239.507515 104.558226 
L 240.257773 107.384987 
L 240.507859 107.459923 
L 240.757944 106.78795 
L 241.508202 103.649453 
L 241.758287 103.906388 
L 242.008373 105.329399 
L 243.258802 117.181038 
L 243.508888 117.277241 
L 243.758974 116.50753 
L 244.259145 114.288159 
L 244.509231 113.716348 
L 244.759317 113.728788 
L 245.259488 114.559633 
L 245.509574 114.554684 
L 245.75966 113.825911 
L 246.259831 110.360865 
L 246.760003 106.955984 
L 247.010089 106.513744 
L 247.260175 107.203875 
L 247.760346 110.917129 
L 248.260518 114.000539 
L 248.510603 114.08966 
L 248.760689 113.088009 
L 249.761032 106.179276 
L 250.011118 105.627202 
L 250.51129 105.541187 
L 250.761376 105.187845 
L 251.011461 104.214925 
L 252.011804 97.907626 
L 252.26189 97.960458 
L 252.511976 99.203976 
L 253.512319 108.04356 
L 253.762405 108.614287 
L 254.012491 108.154533 
L 254.762748 104.723373 
L 255.012834 104.427212 
L 255.26292 104.846936 
L 256.013177 107.28038 
L 256.263263 107.244413 
L 256.763434 105.67285 
L 257.01352 104.937219 
L 257.263606 104.908651 
L 257.513692 105.926552 
L 258.013863 110.913869 
L 258.514035 116.740259 
L 258.76412 118.510642 
L 259.014206 119.085671 
L 259.264292 118.550904 
L 260.014549 114.722914 
L 260.264635 114.231712 
L 260.514721 114.38407 
L 261.014892 115.401353 
L 261.264978 115.431452 
L 261.515064 114.777997 
L 262.515407 109.870507 
L 262.765493 110.200413 
L 263.015579 111.52931 
L 263.765836 117.186649 
L 264.015922 117.74082 
L 264.266008 117.083438 
L 264.766179 113.009775 
L 265.266351 108.625241 
L 265.516437 107.391422 
L 265.766522 106.879859 
L 266.266694 106.741109 
L 266.51678 106.289421 
L 266.766865 105.251475 
L 267.517123 100.694961 
L 267.767209 100.186272 
L 268.017294 100.763518 
L 268.517466 104.639515 
L 269.017637 108.771383 
L 269.267723 109.56445 
L 269.517809 109.207695 
L 270.017981 106.094912 
L 270.518152 103.241717 
L 270.768238 102.933291 
L 271.018324 103.398568 
L 271.768581 105.7815 
L 272.018667 105.746612 
L 272.768924 104.386107 
L 273.01901 104.957594 
L 273.269096 106.550974 
L 274.519525 118.177461 
L 274.76961 117.986259 
L 275.269782 115.124617 
L 275.769954 112.508423 
L 276.020039 112.264652 
L 276.270125 112.711671 
L 276.770297 114.186751 
L 277.020382 114.379501 
L 277.270468 113.924242 
L 278.020726 111.079309 
L 278.270811 111.076192 
L 278.520897 112.00802 
L 279.52124 118.602421 
L 279.771326 118.391599 
L 280.021412 116.948513 
L 281.021755 107.371 
L 281.271841 106.35083 
L 281.521926 106.073972 
L 282.022098 106.20127 
L 282.272184 105.787866 
L 282.772355 103.420888 
L 283.272527 101.091115 
L 283.522613 101.014989 
L 283.772698 101.928498 
L 284.773042 108.453538 
L 285.023127 108.279549 
L 285.273213 106.982592 
L 286.02347 100.720718 
L 286.273556 99.633017 
L 286.523642 99.509764 
L 286.773728 100.183993 
L 287.273899 102.259111 
L 287.523985 102.831996 
L 287.774071 102.862884 
L 288.274243 102.217208 
L 288.524328 102.396775 
L 288.774414 103.411896 
L 289.274586 107.97121 
L 289.774757 113.18029 
L 290.024843 114.62625 
L 290.274929 114.846843 
L 290.525015 113.909105 
L 291.275272 108.806135 
L 291.525358 108.109638 
L 291.775443 108.320018 
L 292.775787 111.828746 
L 293.025872 111.633533 
L 293.526044 110.353879 
L 293.77613 110.129831 
L 294.026215 110.655646 
L 294.526387 113.847742 
L 295.026559 117.076693 
L 295.276644 117.358568 
L 295.52673 116.373548 
L 296.026902 111.436665 
L 296.026902 111.436665 
" clip-path="url(#pdb5405223c)" class="fill-none stroke-zinc-500 dark:stroke-zinc-400" style="stroke-width: 2.5; stroke-linecap: square"/>
   </g>
  </g>
 </g>
 <defs>
  <clipPath id="pdb5405223c">
   <rect x="67.0464" y="13.5072" width="259.8048" height="140.8608"/>
  </clipPath>
 </defs>
</svg>
