<?xml version="1.0" encoding="utf-8" standalone="no"?>
<!DOCTYPE svg PUBLIC "-//W3C//DTD SVG 1.1//EN"
  "http://www.w3.org/Graphics/SVG/1.1/DTD/svg11.dtd">
<svg xmlns:xlink="http://www.w3.org/1999/xlink" viewBox="80 8 236 126" preserveAspectRatio="none" xmlns="http://www.w3.org/2000/svg" version="1.1">
 <metadata>
  <rdf:RDF xmlns:dc="http://purl.org/dc/elements/1.1/" xmlns:cc="http://creativecommons.org/ns#" xmlns:rdf="http://www.w3.org/1999/02/22-rdf-syntax-ns#">
   <cc:Work>
    <dc:type rdf:resource="http://purl.org/dc/dcmitype/StillImage"/>
    <dc:date>2026-06-20T04:45:06.907904</dc:date>
    <dc:format>image/svg+xml</dc:format>
    <dc:creator>
     <cc:Agent>
      <dc:title>Matplotlib v3.10.8, https://matplotlib.org/</dc:title>
     </cc:Agent>
    </dc:creator>
   </cc:Work>
  </rdf:RDF>
 </metadata>
 <defs>
  <style type="text/css">*{stroke-linejoin: round; stroke-linecap: butt}</style>
 </defs>
 <g id="figure_1">
  <g id="patch_1">
   <path d="M 0 192.96 
L 419.04 192.96 
L 419.04 0 
L 0 0 
z
" class="fill-none"/>
  </g>
  <g id="axes_1">
   <g id="patch_2">
    <path vector-effect="non-scaling-stroke" d="M 84.660285 128.576586 
Q 199.150536 128.576586 311.404718 128.576586 
" class="fill-none stroke-zinc-200 dark:stroke-zinc-700" style="stroke-width: 2; stroke-linecap: round"/>
   </g>
   <g id="patch_3">
    <path vector-effect="non-scaling-stroke" d="M 84.660285 128.576586 
Q 84.660285 74.017825 84.660285 21.695133 
" class="fill-none stroke-zinc-200 dark:stroke-zinc-700" style="stroke-width: 2; stroke-linecap: round"/>
   </g>
   <g id="line2d_1">
    <path vector-effect="non-scaling-stroke" d="M 91.265492 43.114618 
L 95.77927 47.276771 
L 100.703392 51.537235 
L 105.217171 55.162198 
L 108.910262 57.848971 
L 112.19301 59.964183 
L 115.065415 61.575253 
L 117.93782 62.95649 
L 121.220568 64.273155 
L 124.913659 65.483886 
L 129.837781 66.832539 
L 139.275682 69.382673 
L 153.227361 73.373321 
L 156.920453 74.08764 
L 160.613544 74.560755 
L 164.716979 74.839792 
L 179.489346 75.542192 
L 183.592781 76.107991 
L 187.696216 76.901854 
L 190.978964 77.745742 
L 193.441025 78.589745 
L 195.492742 79.535116 
L 197.134116 80.534203 
L 198.77549 81.828464 
L 200.416864 83.485867 
L 202.058239 85.540153 
L 203.699613 87.956032 
L 209.444422 96.927539 
L 211.085796 98.875659 
L 212.72717 100.395881 
L 214.368544 101.528797 
L 216.009918 102.350486 
L 218.061635 103.064962 
L 220.523696 103.64108 
L 224.216788 104.245432 
L 232.013315 105.260736 
L 236.937437 105.70512 
L 241.040872 105.845232 
L 245.144307 105.753257 
L 250.889116 105.360035 
L 257.454612 104.935506 
L 261.558047 104.886426 
L 265.661482 105.055239 
L 271.406291 105.547356 
L 277.971787 106.082894 
L 282.075222 106.19864 
L 286.178658 106.09004 
L 291.513123 105.69992 
L 296.026902 105.327171 
L 296.026902 105.327171 
" clip-path="url(#pe6bb21796f)" class="fill-none stroke-zinc-500 dark:stroke-zinc-400" style="stroke-width: 2; stroke-linecap: square"/>
   </g>
  </g>
 </g>
 <defs>
  <clipPath id="pe6bb21796f">
   <rect x="67.0464" y="13.5072" width="259.8048" height="140.8608"/>
  </clipPath>
 </defs>
</svg>
