<?xml version="1.0" encoding="utf-8" standalone="no"?>
<!DOCTYPE svg PUBLIC "-//W3C//DTD SVG 1.1//EN"
  "http://www.w3.org/Graphics/SVG/1.1/DTD/svg11.dtd">
<svg xmlns:xlink="http://www.w3.org/1999/xlink" viewBox="80 8 236 126" preserveAspectRatio="none" xmlns="http://www.w3.org/2000/svg" version="1.1">
 <metadata>
  <rdf:RDF xmlns:dc="http://purl.org/dc/elements/1.1/" xmlns:cc="http://creativecommons.org/ns#" xmlns:rdf="http://www.w3.org/1999/02/22-rdf-syntax-ns#">
   <cc:Work>
    <dc:type rdf:resource="http://purl.org/dc/dcmitype/StillImage"/>
    <dc:date>2026-06-20T04:45:06.951461</dc:date>
    <dc:format>image/svg+xml</dc:format>
    <dc:creator>
     <cc:Agent>
      <dc:title>Matplotlib v3.10.8, https://matplotlib.org/</dc:title>
     </cc:Agent>
    </dc:creator>
   </cc:Work>
  </rdf:RDF>
 </metadata>
 <defs>
  <style type="text/css">*{stroke-linejoin: round; stroke-linecap: butt}</style>
 </defs>
 <g id="figure_1">
  <g id="patch_1">
   <path d="M 0 192.96 
L 419.04 192.96 
L 419.04 0 
L 0 0 
z
" class="fill-none"/>
  </g>
  <g id="axes_1">
   <g id="patch_2">
    <path vector-effect="non-scaling-stroke" d="M 84.660285 128.576586 
Q 199.150536 128.576586 311.404718 128.576586 
" class="fill-none stroke-zinc-200 dark:stroke-zinc-700" style="stroke-width: 2; stroke-linecap: round"/>
   </g>
   <g id="patch_3">
    <path vector-effect="non-scaling-stroke" d="M 84.660285 128.576586 
Q 84.660285 74.017825 84.660285 21.695133 
" class="fill-none stroke-zinc-200 dark:stroke-zinc-700" style="stroke-width: 2; stroke-linecap: round"/>
   </g>
   <g id="line2d_1">
    <path vector-effect="non-scaling-stroke" d="M 91.265492 44.328438 
L 95.073644 49.498233 
L 98.881796 54.277152 
L 102.689948 58.694747 
L 106.4981 62.778338 
L 110.306252 66.553177 
L 114.407339 70.299836 
L 118.508426 73.742336 
L 122.609513 76.90537 
L 127.003535 80.009949 
L 131.397556 82.845294 
L 135.791578 85.42793 
L 137.842121 86.454105 
L 138.720926 86.730149 
L 139.306795 86.781225 
L 139.892665 86.660859 
L 140.478534 86.298514 
L 141.064404 85.619199 
L 141.650273 84.55906 
L 142.236143 83.087196 
L 143.114947 80.184582 
L 144.872556 73.838126 
L 145.458426 72.472407 
L 145.75136 72.070506 
L 146.044295 71.883658 
L 146.33723 71.923527 
L 146.630165 72.193533 
L 147.216034 73.395655 
L 147.801904 75.357133 
L 148.973643 80.598482 
L 150.438317 86.994142 
L 151.317121 89.786932 
L 152.195925 91.694346 
L 153.07473 92.908347 
L 153.953534 93.674892 
L 155.125273 94.337497 
L 157.175817 95.163839 
L 162.448643 96.976634 
L 168.600273 98.852487 
L 175.044838 100.578087 
L 179.145925 101.505382 
L 180.317664 101.594017 
L 181.196469 101.429247 
L 181.782338 101.112562 
L 182.368208 100.548761 
L 182.954077 99.663106 
L 183.539947 98.393879 
L 184.418751 95.728555 
L 185.59049 91.12673 
L 186.762229 86.73835 
L 187.348099 85.282392 
L 187.641034 84.843034 
L 187.933968 84.622073 
L 188.226903 84.629615 
L 188.519838 84.867439 
L 188.812773 85.328889 
L 189.398642 86.856763 
L 190.277447 90.255188 
L 192.32799 98.845274 
L 193.206794 101.369097 
L 193.792664 102.556106 
L 194.378534 103.406885 
L 195.257338 104.213896 
L 196.136142 104.665321 
L 197.307881 105.000692 
L 199.944294 105.451402 
L 208.439403 106.618958 
L 218.106251 107.719239 
L 221.328533 107.951779 
L 222.500272 107.807714 
L 223.086142 107.577417 
L 223.672011 107.165906 
L 224.257881 106.500875 
L 224.843751 105.508012 
L 225.42962 104.127957 
L 226.308424 101.300479 
L 227.773098 95.303279 
L 228.651903 92.068322 
L 229.237772 90.61524 
L 229.530707 90.184225 
L 229.823642 89.974387 
L 230.116577 89.994254 
L 230.409511 90.243962 
L 230.995381 91.391971 
L 231.58125 93.263774 
L 232.75299 98.177412 
L 233.924729 102.94389 
L 234.803533 105.625795 
L 235.389403 106.907798 
L 235.975272 107.828256 
L 236.561142 108.456327 
L 237.439946 109.012474 
L 238.31875 109.292022 
L 239.783424 109.49937 
L 244.763315 109.829846 
L 258.824185 110.554121 
L 263.218207 110.645215 
L 264.389946 110.421595 
L 264.975815 110.14502 
L 265.561685 109.681025 
L 266.147554 108.956565 
L 266.733424 107.897918 
L 267.319293 106.448306 
L 268.198098 103.520784 
L 270.834511 93.415404 
L 271.42038 92.400689 
L 271.713315 92.221186 
L 272.00625 92.272159 
L 272.299185 92.552104 
L 272.885054 93.751797 
L 273.470924 95.655267 
L 274.642663 100.554418 
L 275.814402 105.221566 
L 276.693206 107.807259 
L 277.279076 109.027271 
L 277.864945 109.89195 
L 278.450815 110.47181 
L 279.329619 110.968971 
L 280.208424 111.201618 
L 281.966032 111.359511 
L 289.582337 111.565202 
L 296.026902 111.707187 
L 296.026902 111.707187 
" clip-path="url(#p9006e2f9ef)" class="fill-none stroke-zinc-500 dark:stroke-zinc-400" style="stroke-width: 2; stroke-linecap: square"/>
   </g>
  </g>
 </g>
 <defs>
  <clipPath id="p9006e2f9ef">
   <rect x="67.0464" y="13.5072" width="259.8048" height="140.8608"/>
  </clipPath>
 </defs>
</svg>
