<?xml version="1.0" encoding="utf-8" standalone="no"?>
<!DOCTYPE svg PUBLIC "-//W3C//DTD SVG 1.1//EN"
  "http://www.w3.org/Graphics/SVG/1.1/DTD/svg11.dtd">
<svg xmlns:xlink="http://www.w3.org/1999/xlink" viewBox="80 8 236 126" preserveAspectRatio="none" xmlns="http://www.w3.org/2000/svg" version="1.1">
 <metadata>
  <rdf:RDF xmlns:dc="http://purl.org/dc/elements/1.1/" xmlns:cc="http://creativecommons.org/ns#" xmlns:rdf="http://www.w3.org/1999/02/22-rdf-syntax-ns#">
   <cc:Work>
    <dc:type rdf:resource="http://purl.org/dc/dcmitype/StillImage"/>
    <dc:date>2026-06-20T04:45:07.142002</dc:date>
    <dc:format>image/svg+xml</dc:format>
    <dc:creator>
     <cc:Agent>
      <dc:title>Matplotlib v3.10.8, https://matplotlib.org/</dc:title>
     </cc:Agent>
    </dc:creator>
   </cc:Work>
  </rdf:RDF>
 </metadata>
 <defs>
  <style type="text/css">*{stroke-linejoin: round; stroke-linecap: butt}</style>
 </defs>
 <g id="figure_1">
  <g id="patch_1">
   <path d="M 0 192.96 
L 419.04 192.96 
L 419.04 0 
L 0 0 
z
" class="fill-none"/>
  </g>
  <g id="axes_1">
   <g id="patch_2">
    <path vector-effect="non-scaling-stroke" d="M 84.660285 128.576586 
Q 199.150536 128.576586 311.404718 128.576586 
" class="fill-none stroke-zinc-200 dark:stroke-zinc-700" style="stroke-width: 2.5; stroke-linecap: round"/>
   </g>
   <g id="patch_3">
    <path vector-effect="non-scaling-stroke" d="M 84.660285 128.576586 
Q 84.660285 74.017825 84.660285 21.695133 
" class="fill-none stroke-zinc-200 dark:stroke-zinc-700" style="stroke-width: 2.5; stroke-linecap: round"/>
   </g>
   <g id="line2d_1">
    <path vector-effect="non-scaling-stroke" d="M 91.265492 47.939797 
L 95.178921 53.594193 
L 99.527176 59.471962 
L 103.875432 64.998586 
L 108.223687 70.190719 
L 112.137117 74.549129 
L 115.615721 78.133483 
L 119.094325 81.40671 
L 122.138104 83.991603 
L 125.181882 86.303915 
L 128.225661 88.344079 
L 131.26944 90.125493 
L 134.748044 91.878591 
L 138.226648 93.384285 
L 142.574903 95.022797 
L 165.620656 103.289737 
L 171.708214 105.470389 
L 176.056469 106.792774 
L 179.969899 107.738654 
L 183.448503 108.361837 
L 187.361932 108.825643 
L 191.710188 109.097925 
L 198.667396 109.251987 
L 205.189779 109.458154 
L 209.97286 109.831654 
L 214.755941 110.438788 
L 220.843498 111.464528 
L 229.540008 112.935862 
L 230.422645 112.978483 
L 231.09436 112.821354 
L 231.766076 112.430076 
L 232.437792 111.741161 
L 233.109508 110.702739 
L 233.781224 109.269781 
L 234.676846 106.676211 
L 235.572467 103.223435 
L 236.468088 98.832977 
L 237.363709 93.432467 
L 238.483236 85.158991 
L 239.602762 75.078872 
L 240.722289 63.076771 
L 242.065721 45.984466 
L 243.185247 29.378839 
L 243.185247 38.306637 
L 243.877496 25.335839 
L 244.108246 23.20045 
L 244.338995 22.499721 
L 244.569745 23.133175 
L 245.031244 27.150033 
L 245.723493 33.759338 
L 245.954242 34.871804 
L 246.184992 35.355201 
L 246.877241 35.558556 
L 247.10799 36.33989 
L 247.33874 37.921326 
L 247.800239 43.521777 
L 248.492488 53.722019 
L 248.723237 55.790807 
L 248.953987 56.511629 
L 249.184737 55.693076 
L 249.415486 53.353646 
L 249.876985 45.210473 
L 250.569234 31.650328 
L 251.030733 26.970473 
L 251.261483 26.445645 
L 251.492232 26.9146 
L 252.415231 31.417657 
L 252.64598 31.640159 
L 252.87673 31.327332 
L 253.338229 30.028403 
L 253.568979 29.750826 
L 253.799728 30.207481 
L 254.030478 31.656161 
L 254.491977 37.722157 
L 255.414975 54.160823 
L 255.645725 56.397865 
L 255.876474 57.12685 
L 256.107224 56.267288 
L 256.337974 53.955059 
L 257.030222 42.189746 
L 257.491722 35.187146 
L 257.953221 31.866753 
L 258.18397 31.552537 
L 258.41472 31.791034 
L 258.876219 32.461883 
L 259.106969 32.253681 
L 259.337718 31.454038 
L 259.799217 28.405401 
L 260.260717 25.434592 
L 260.491466 24.981885 
L 260.722216 25.669855 
L 260.952965 27.658463 
L 261.414464 35.185981 
L 262.337463 53.054704 
L 262.568212 55.234641 
L 262.798962 55.899154 
L 263.029711 55.086934 
L 263.491211 50.14219 
L 264.183459 41.028742 
L 264.644959 37.910857 
L 264.875708 37.413638 
L 265.337207 37.281406 
L 265.567957 36.946123 
L 265.798706 36.034163 
L 266.260206 32.086734 
L 267.183204 22.08391 
L 267.413954 21.518788 
L 267.644703 22.385101 
L 267.875453 24.727539 
L 268.336952 32.978248 
L 269.029201 47.26763 
L 269.4907 52.408073 
L 269.721449 52.9493 
L 269.952199 52.275219 
L 270.413698 48.648338 
L 270.875197 44.76136 
L 271.105947 43.5387 
L 271.336696 42.945794 
L 271.567446 42.874956 
L 272.028945 43.181606 
L 272.259695 42.846846 
L 272.490444 41.765099 
L 272.951944 36.868109 
L 274.105691 20.309991 
L 274.336441 19.700548 
L 274.567191 20.668151 
L 274.79794 23.13703 
L 275.259439 31.292331 
L 275.951688 44.102798 
L 276.413187 48.188877 
L 276.643937 48.566966 
L 276.874686 48.114217 
L 277.566935 45.473533 
L 277.797685 45.254698 
L 278.028434 45.607057 
L 278.951433 48.563857 
L 279.182182 47.943683 
L 279.412932 46.204309 
L 279.874431 39.41924 
L 280.797429 22.420372 
L 281.028179 20.292958 
L 281.258928 19.704692 
L 281.489678 20.679225 
L 281.951177 26.384841 
L 282.874176 40.333316 
L 283.104925 42.104131 
L 283.335675 42.985602 
L 283.566424 43.182241 
L 284.027923 42.856056 
L 284.258673 43.033498 
L 284.489423 43.773991 
L 284.950922 47.031743 
L 285.643171 52.532769 
L 285.87392 52.939191 
L 286.10467 52.07665 
L 286.335419 49.83784 
L 286.796918 41.824857 
L 287.719917 24.037054 
L 287.950666 22.041098 
L 288.181416 21.529896 
L 288.412165 22.408909 
L 288.873665 27.079692 
L 289.565913 34.861018 
L 290.027413 37.070381 
L 290.258162 37.305014 
L 290.488912 37.323332 
L 290.719661 37.484203 
L 290.950411 38.122002 
L 291.18116 39.471459 
L 291.64266 44.436233 
L 292.334908 53.622193 
L 292.565658 55.406395 
L 292.796408 55.879435 
L 293.027157 54.847099 
L 293.257907 52.322099 
L 293.719406 43.871105 
L 294.411655 30.025554 
L 294.873154 25.389379 
L 295.103903 24.996209 
L 295.334653 25.679929 
L 296.026902 30.467328 
L 296.026902 30.467328 
" clip-path="url(#p1cd86dbcaf)" class="fill-none stroke-zinc-500 dark:stroke-zinc-400" style="stroke-width: 2.5; stroke-linecap: square"/>
   </g>
  </g>
 </g>
 <defs>
  <clipPath id="p1cd86dbcaf">
   <rect x="67.0464" y="13.5072" width="259.8048" height="140.8608"/>
  </clipPath>
 </defs>
</svg>
