<?xml version="1.0" encoding="utf-8" standalone="no"?>
<!DOCTYPE svg PUBLIC "-//W3C//DTD SVG 1.1//EN"
  "http://www.w3.org/Graphics/SVG/1.1/DTD/svg11.dtd">
<svg xmlns:xlink="http://www.w3.org/1999/xlink" viewBox="80 8 236 126" preserveAspectRatio="none" xmlns="http://www.w3.org/2000/svg" version="1.1">
 <metadata>
  <rdf:RDF xmlns:dc="http://purl.org/dc/elements/1.1/" xmlns:cc="http://creativecommons.org/ns#" xmlns:rdf="http://www.w3.org/1999/02/22-rdf-syntax-ns#">
   <cc:Work>
    <dc:type rdf:resource="http://purl.org/dc/dcmitype/StillImage"/>
    <dc:date>2026-06-20T04:45:07.111487</dc:date>
    <dc:format>image/svg+xml</dc:format>
    <dc:creator>
     <cc:Agent>
      <dc:title>Matplotlib v3.10.8, https://matplotlib.org/</dc:title>
     </cc:Agent>
    </dc:creator>
   </cc:Work>
  </rdf:RDF>
 </metadata>
 <defs>
  <style type="text/css">*{stroke-linejoin: round; stroke-linecap: butt}</style>
 </defs>
 <g id="figure_1">
  <g id="patch_1">
   <path d="M 0 192.96 
L 419.04 192.96 
L 419.04 0 
L 0 0 
z
" class="fill-none"/>
  </g>
  <g id="axes_1">
   <g id="patch_2">
    <path vector-effect="non-scaling-stroke" d="M 84.660285 128.576586 
Q 199.150536 128.576586 311.404718 128.576586 
" class="fill-none stroke-zinc-200 dark:stroke-zinc-700" style="stroke-width: 2.5; stroke-linecap: round"/>
   </g>
   <g id="patch_3">
    <path vector-effect="non-scaling-stroke" d="M 84.660285 128.576586 
Q 84.660285 74.017825 84.660285 21.695133 
" class="fill-none stroke-zinc-200 dark:stroke-zinc-700" style="stroke-width: 2.5; stroke-linecap: round"/>
   </g>
   <g id="line2d_1">
    <path vector-effect="non-scaling-stroke" d="M 91.265492 57.368396 
L 92.843006 72.761961 
L 93.789515 80.08034 
L 94.736024 85.66898 
L 95.682533 89.732928 
L 96.629042 92.723892 
L 97.891053 95.905148 
L 99.784071 100.167498 
L 100.73058 101.736564 
L 101.361586 102.23438 
L 101.677089 102.247381 
L 101.992592 102.072078 
L 102.308095 101.687328 
L 102.623597 101.0747 
L 103.254603 99.110125 
L 103.885609 96.111575 
L 104.516615 92.092862 
L 105.463124 84.39419 
L 107.040639 68.961605 
L 108.618153 54.26219 
L 109.564662 47.554912 
L 110.195668 44.302335 
L 110.826674 42.068497 
L 111.45768 40.796302 
L 111.773183 40.483329 
L 112.088686 40.358782 
L 112.404189 40.399401 
L 113.035195 40.87705 
L 113.6662 41.718483 
L 116.505727 46.417082 
L 117.452236 48.152357 
L 118.083242 49.647202 
L 118.714248 51.599579 
L 119.345253 54.154216 
L 119.976259 57.413359 
L 120.922768 63.686961 
L 122.18478 74.226166 
L 124.393301 93.856266 
L 125.339809 100.314876 
L 125.970815 103.388103 
L 126.601821 105.339366 
L 126.917324 105.885397 
L 127.232827 106.151545 
L 127.54833 106.149358 
L 127.863833 105.895215 
L 128.179336 105.40975 
L 128.810342 103.844375 
L 129.756851 100.437688 
L 132.596377 89.124989 
L 134.173892 84.281098 
L 135.435904 80.200055 
L 136.382412 76.286521 
L 137.328921 71.334354 
L 138.590933 63.308756 
L 140.483951 50.979366 
L 141.43046 46.486043 
L 142.061465 44.640778 
L 142.376968 44.121494 
L 142.692471 43.885548 
L 143.007974 43.936878 
L 143.323477 44.273738 
L 143.63898 44.888747 
L 144.269986 46.896944 
L 144.900992 49.801642 
L 145.847501 55.345016 
L 148.371524 71.096762 
L 149.318033 75.59725 
L 150.264542 79.095501 
L 151.526554 82.799705 
L 152.788565 86.511279 
L 153.735074 89.886929 
L 154.997086 95.30463 
L 156.574601 102.242523 
L 157.205607 104.416242 
L 157.836613 105.907361 
L 158.152115 106.336048 
L 158.467618 106.527769 
L 158.783121 106.46865 
L 159.098624 106.149773 
L 159.414127 105.567534 
L 160.045133 103.626135 
L 160.676139 100.725321 
L 161.622648 94.94725 
L 164.777677 73.604863 
L 165.724186 69.45089 
L 166.355192 67.54066 
L 166.986198 66.2361 
L 167.617204 65.400176 
L 168.563713 64.646169 
L 169.825724 63.687126 
L 170.45673 62.959001 
L 171.403239 61.478939 
L 172.980754 58.747246 
L 173.61176 58.055576 
L 173.927263 57.896224 
L 174.242766 57.893016 
L 174.558269 58.066943 
L 174.873771 58.435755 
L 175.504777 59.808841 
L 176.135783 62.0665 
L 176.766789 65.180826 
L 177.713298 71.193891 
L 180.868327 93.331468 
L 181.499333 96.29422 
L 182.130339 98.407374 
L 182.761345 99.668355 
L 183.076848 100.000714 
L 183.392351 100.154736 
L 183.707854 100.150346 
L 184.33886 99.75931 
L 185.285369 98.599786 
L 186.54738 96.989826 
L 187.178386 96.464794 
L 187.809392 96.192862 
L 188.440398 96.133719 
L 189.70241 96.179993 
L 190.333416 95.947372 
L 190.964422 95.301492 
L 191.595427 94.088203 
L 192.226433 92.205544 
L 192.857439 89.621813 
L 193.803948 84.558406 
L 197.27448 63.91099 
L 197.905486 61.867018 
L 198.536492 60.754457 
L 198.851995 60.552755 
L 199.167498 60.579498 
L 199.483001 60.822372 
L 200.114007 61.884923 
L 200.745013 63.561429 
L 202.007025 67.869179 
L 203.269036 72.018881 
L 204.215545 74.326172 
L 204.846551 75.412054 
L 205.79306 76.539413 
L 207.055072 77.883044 
L 207.686078 78.878005 
L 208.317083 80.291039 
L 208.948089 82.213775 
L 209.894598 86.080681 
L 211.15661 92.587243 
L 212.734125 100.676655 
L 213.365131 103.125556 
L 213.996136 104.80821 
L 214.311639 105.317716 
L 214.627142 105.591866 
L 214.942645 105.626654 
L 215.258148 105.423532 
L 215.573651 104.989366 
L 216.204657 103.480995 
L 216.835663 101.252919 
L 218.097675 95.509115 
L 219.675189 88.386281 
L 220.621698 85.266768 
L 221.252704 83.829974 
L 221.88371 82.865208 
L 222.514716 82.260473 
L 224.407734 80.9265 
L 225.038739 80.078339 
L 225.669745 78.835109 
L 226.616254 76.203007 
L 228.193769 70.580184 
L 229.140278 67.495602 
L 229.771284 66.025804 
L 230.402289 65.253872 
L 230.717792 65.174373 
L 231.033295 65.314167 
L 231.348798 65.678176 
L 231.979804 67.071822 
L 232.61081 69.288394 
L 233.557319 73.820585 
L 236.396845 88.751722 
L 237.027851 90.94383 
L 237.658857 92.476484 
L 238.289863 93.376351 
L 238.920869 93.74307 
L 239.551875 93.732728 
L 241.12939 93.30504 
L 241.760395 93.433587 
L 242.391401 93.907427 
L 243.022407 94.751739 
L 243.968916 96.584572 
L 245.546431 99.893242 
L 246.177437 100.720024 
L 246.49294 100.927096 
L 246.808443 100.969654 
L 247.123945 100.832031 
L 247.439448 100.502919 
L 248.070454 99.249341 
L 248.70146 97.218835 
L 249.647969 92.938406 
L 252.802998 76.663491 
L 253.434004 74.737692 
L 254.06501 73.573652 
L 254.380513 73.276522 
L 254.696016 73.158751 
L 255.011519 73.206597 
L 255.642525 73.724512 
L 256.273531 74.651421 
L 258.166549 77.829003 
L 258.797554 78.436043 
L 259.42856 78.655654 
L 260.059566 78.498067 
L 260.690572 78.04646 
L 262.268087 76.672337 
L 262.899093 76.532746 
L 263.214596 76.643201 
L 263.530099 76.897726 
L 264.161104 77.887482 
L 264.79211 79.552678 
L 265.423116 81.864669 
L 266.369625 86.290406 
L 268.578146 97.385717 
L 269.209152 99.682742 
L 269.840157 101.24719 
L 270.15566 101.725808 
L 270.471163 101.996913 
L 270.786666 102.0633 
L 271.102169 101.932935 
L 271.417672 101.618659 
L 272.048678 100.511314 
L 272.995187 98.012745 
L 274.572702 93.451291 
L 275.203707 92.063669 
L 275.834713 91.110898 
L 276.465719 90.618193 
L 277.096725 90.534623 
L 277.727731 90.74192 
L 278.989743 91.331645 
L 279.620749 91.32903 
L 280.251755 90.902178 
L 280.88276 89.942168 
L 281.513766 88.410207 
L 282.460275 85.146926 
L 285.299802 73.853302 
L 285.930808 72.452013 
L 286.24631 72.038103 
L 286.561813 71.829253 
L 286.877316 71.829465 
L 287.192819 72.037429 
L 287.508322 72.446564 
L 288.139328 73.81707 
L 288.770334 75.794573 
L 290.032346 80.728946 
L 291.294358 85.421867 
L 291.925363 87.188676 
L 292.556369 88.421661 
L 293.187375 89.105061 
L 293.818381 89.300127 
L 294.449387 89.134547 
L 296.026902 88.33954 
L 296.026902 88.33954 
" clip-path="url(#p8e5bb71179)" class="fill-none stroke-zinc-500 dark:stroke-zinc-400" style="stroke-width: 2.5; stroke-linecap: square"/>
   </g>
  </g>
 </g>
 <defs>
  <clipPath id="p8e5bb71179">
   <rect x="67.0464" y="13.5072" width="259.8048" height="140.8608"/>
  </clipPath>
 </defs>
</svg>
